<?xml version="1.0" encoding="utf-8"?>
<!-- Generator: Adobe Illustrator 24.2.0, SVG Export Plug-In . SVG Version: 6.00 Build 0)  -->
<svg version="1.1" id="Layer_1" xmlns="http://www.w3.org/2000/svg" xmlns:xlink="http://www.w3.org/1999/xlink" x="0px" y="0px"
	 viewBox="0 0 1080 1080" style="enable-background:new 0 0 1080 1080;" xml:space="preserve">
<style type="text/css">
	.st0{fill:#F2261D;}
</style>
<g>
	<path class="st0" d="M927.66,384.82c-13.43-37.37-32.14-72.01-55.53-104.11c-4.12-5.66-8.54-11.1-13.43-17.44
		c-2.32,15.03-4.44,28.69-6.55,42.36c-0.47-0.01-0.95-0.02-1.42-0.03c-2.39-17.67-4.78-35.34-7.27-53.74
		c-11.57,7.73-22.49,15.03-33.41,22.32c-0.2-0.29-0.41-0.58-0.61-0.87c7.95-9.87,15.9-19.73,24.66-30.61
		c-22.01-2.9-42.77-5.64-63.53-8.38c-0.01-0.17-0.01-0.33-0.02-0.5c16.62-2.52,33.24-5.04,51.01-7.73
		c-2.57-2.77-4.13-4.68-5.92-6.34c-23.42-21.7-48.99-40.44-76.72-56.3c-45.64-26.11-94.48-42.84-146.41-50.55
		c-71.87-10.67-141.86-3.06-209.82,22.54c-47.38,17.84-90.02,43.7-128.31,76.85c-34.43,29.81-63.1,64.39-86.49,103.38
		c-28.86,48.11-46.36,100.21-53.59,155.73c-6.02,46.15-4.23,92.09,5.5,137.65c12.47,58.38,36.97,111.34,72.12,159.47
		c0.95,1.31,2.1,2.48,3.38,3.97c14.12-10.45,29.4-17.82,45.95-22.8c-11.95,12.32-23.76,24.74-40.95,30.81
		c5.4,6.22,10.37,11.95,15.81,18.22c-24.47,14.04-48.35,27.73-72.23,41.43c0.12,0.28,0.25,0.57,0.37,0.85
		c1.55-0.43,3.12-0.78,4.64-1.31c24.67-8.65,49.39-17.18,73.96-26.1c4.61-1.67,7.33-1.01,10.79,2.44
		c32.83,32.77,70.3,59.23,111.96,79.44c49.83,24.17,102.44,38.33,157.89,41.66c37.29,2.24,74.27,0.27,110.87-7.21
		c57.99-11.84,111.52-34.19,160.05-68.38c55.92-39.39,99.91-89.21,131.64-149.76c26.82-51.18,41.83-105.68,45.19-163.41
		C954.49,492.23,946.67,437.69,927.66,384.82z M469.23,339.18c6.99,2.98,13.82,6.74,21.13,8.85c19.42,5.59,39,3.04,58.43-0.42
		c15.9-2.84,31.7-6.21,47.58-9.15c15.95-2.95,32.03-4.18,48.24-2.86c1.42,0.12,2.86,0.02,4.36-0.41c-3.36-0.75-6.71-1.49-10.77-2.39
		c1.04-3.54,1.77-6.91,3.01-10.07c9.52-24.37,38.18-36.92,60.79-26.79c5.91,2.65,10.42,6.8,12.83,12.69
		c3.81,9.3,10.07,14.23,20.39,13.18c0.47-0.05,0.96,0.16,1.44,0.28c0.14,0.04,0.26,0.19,0.79,0.61c-1.08,2.58-2.08,5.36-3.37,8
		c-1.92,3.92-1.91,7.63,0.46,11.35c0.71,1.12,1.22,2.37,1.75,3.59c3.75,8.8-0.4,17.48-9.89,18.92
		c-12.38,1.87-20.37,9.15-26.44,19.25c-4.11,6.85-7.55,14.12-11.92,20.79c-13.69,20.9-33.63,32.77-57.55,38.31
		c-8.51,1.97-17.25,2.99-26.11,3.78c11.69-5.07,23-10.51,32.07-19.58c9.05-9.04,15.44-19.75,19.83-31.05
		c-7.7,5.68-15.23,12.27-23.69,17.27c-20.14,11.9-42.47,13.96-65.26,12.21c-21.38-1.64-38.54-12.47-54.46-25.87
		c-2.72-2.29-6.14-3.92-9.48-5.24c-11.06-4.39-27.17-15.42-33.22-23.66c41.42,25.88,81.72,26.63,122.05,0.38
		c-1.11,0.18-2.24,0.27-3.32,0.55c-20.27,5.32-40.83,8.54-61.78,6.43c-25.07-2.53-45.02-13.57-57.06-36.66
		c-0.31-0.59-0.66-1.17-0.88-1.79C469.06,339.42,469.25,339.06,469.23,339.18z M588.44,465.54
		c-57.12,17.96-115.15,22.38-174.23,11.21C471.63,463.3,529.79,460.74,588.44,465.54z M576.29,445.85
		c-74.53,0.74-148.6,4.98-220.65,26.8c9.14,7.84,55.69,21.62,92.52,25.45c32.22,3.35,64.45,1.75,97.04,1.43
		c-1.55,0.6-3.05,1.4-4.65,1.76c-16.37,3.75-32.75,7.42-49.12,11.16c-1.24,0.28-2.75,0.57-3.55,1.41
		c-8.39,8.78-16.67,17.67-24.96,26.54c-0.2,0.21-0.19,0.6-0.43,1.42c21.24-3.25,39.42-14.15,58.89-21.38
		c-9.98,25.14-66.21,49.28-102.08,42.93c14.37-16.05,28.23-31.53,42.94-47.96c-71.77,3.13-138.49-10.35-198.83-49.65
		C366.14,434.84,470.63,431.69,576.29,445.85z M339.59,680.7c-25.67,21.37-52.24,41.05-85.26,48.8
		C277.68,704.74,308.32,692.12,339.59,680.7z M691.99,500.45c-24.12,35.32-51.76,67.68-82.24,97.65
		c-38.68,38.03-81.72,70.25-128.38,97.9c-59.97,35.54-123.49,63.37-188.55,87.86c-30.54,11.5-61.41,22.1-92.14,33.09
		c-1.51,0.54-3.12,0.81-4.86,0.76c97.99-60.61,200.4-113.29,300.39-170.27c-73.6,29.38-145.24,63.14-217.62,96.02
		c5.91-6.77,79.14-55.44,113.65-74.81c39.47-22.16,79.32-43.63,117.42-64.54c-51.9,16.37-103.2,39.54-155.67,60.05
		c6.99-4.83,13.89-9.81,20.99-14.46c46.34-30.36,96.33-53.31,147.9-73.12c36.67-14.09,73.63-27.52,108.16-46.65
		c27.35-15.16,53.27-32.2,75.64-54.26c0.4-0.4,0.99-0.6,1.49-0.89c0.2,0.19,0.4,0.37,0.6,0.56
		C703.19,483.72,697.67,492.14,691.99,500.45z M820.29,314.84c-15.88,29.53-34.36,57.4-54.52,84.17
		c-30.46,40.47-65.85,75.79-107.63,104.7c-32.42,22.44-67.53,39.33-104.38,52.89c-0.57,0.21-1.22,0.2-2.52,0.39
		c21.76-17.98,45.51-32.99,59.16-59.47c-37.12,7.27-65.82,28.52-95.6,48.33c2.63-3.17,5.26-6.33,7.9-9.49
		c2.67-3.19,5.34-6.39,8.02-9.57c22.23-26.29,49.81-45.4,80.59-60.28c28.8-13.92,57.22-28.5,83.64-46.73
		c34.73-23.96,66.11-51.67,93.76-83.51c16.36-18.84,32.12-38.21,48.16-57.33c0.28-0.34,0.68-0.57,1.03-0.86
		c0.23,0.14,0.46,0.27,0.69,0.41C832.52,290.62,826.71,302.9,820.29,314.84z"/>
	<path class="st0" d="M540.49,414.55c29.07,14.15,59.46,7.45,76.43-17.51C594.24,415.18,568.38,419.18,540.49,414.55z"/>
</g>
<path class="st0" d="M834,224l-20-27l29,21l9-51l8,50l28-18l-20,27l48,9l-48,7l20,27l-29-19v14c0,0-6.95-12.05-19-23
	c-11-10-19-15-19-15L834,224z"/>
</svg>
