<svg width="2872" height="830" viewBox="0 0 2872 830" fill="none" xmlns="http://www.w3.org/2000/svg">
<path d="M816.833 276.598C803.403 239.228 784.693 204.588 761.303 172.488C757.183 166.828 752.763 161.388 747.873 155.048C745.553 170.078 743.433 183.738 741.323 197.408C740.853 197.398 740.373 197.388 739.903 197.378C737.513 179.708 735.123 162.038 732.633 143.638C721.063 151.368 710.143 158.668 699.223 165.958C699.023 165.668 698.813 165.378 698.613 165.088C706.563 155.218 714.513 145.358 723.273 134.478C701.263 131.578 680.503 128.838 659.743 126.098C659.733 125.928 659.733 125.768 659.723 125.598C676.343 123.078 692.963 120.558 710.733 117.868C708.163 115.098 706.603 113.188 704.813 111.528C681.393 89.8283 655.823 71.0883 628.093 55.2283C582.453 29.1183 533.613 12.3883 481.683 4.67828C409.813 -5.99172 339.823 1.61828 271.863 27.2183C224.483 45.0583 181.843 70.9183 143.553 104.068C109.123 133.878 80.4528 168.458 57.0628 207.448C28.2028 255.558 10.7028 307.658 3.47279 363.178C-2.54721 409.328 -0.757214 455.268 8.97279 500.828C21.4428 559.208 45.9428 612.168 81.0928 660.298C82.0428 661.608 83.1928 662.778 84.4728 664.268C98.5928 653.818 113.873 646.448 130.423 641.468C118.473 653.788 106.663 666.208 89.4728 672.278C94.8728 678.498 99.8428 684.228 105.283 690.498C80.8128 704.538 56.9328 718.228 33.0528 731.928C33.1728 732.208 33.3028 732.498 33.4228 732.778C34.9728 732.348 36.5428 731.998 38.0628 731.468C62.7328 722.818 87.4528 714.288 112.023 705.368C116.633 703.698 119.353 704.358 122.813 707.808C155.643 740.578 193.113 767.038 234.773 787.248C284.603 811.418 337.213 825.578 392.663 828.908C429.953 831.148 466.933 829.178 503.533 821.698C561.523 809.858 615.053 787.508 663.583 753.318C719.503 713.928 763.493 664.108 795.223 603.558C822.043 552.378 837.053 497.878 840.413 440.148C843.663 384.008 835.843 329.468 816.833 276.598ZM358.403 230.958C365.393 233.938 372.223 237.698 379.533 239.808C398.953 245.398 418.533 242.848 437.963 239.388C453.863 236.548 469.663 233.178 485.543 230.238C501.493 227.288 517.573 226.058 533.783 227.378C535.203 227.498 536.643 227.398 538.143 226.968C534.783 226.218 531.433 225.478 527.373 224.578C528.413 221.038 529.143 217.668 530.383 214.508C539.903 190.138 568.563 177.588 591.173 187.718C597.083 190.368 601.593 194.518 604.003 200.408C607.813 209.708 614.073 214.638 624.393 213.588C624.863 213.538 625.353 213.748 625.833 213.868C625.973 213.908 626.093 214.058 626.623 214.478C625.543 217.058 624.543 219.838 623.253 222.478C621.333 226.398 621.343 230.108 623.713 233.828C624.423 234.948 624.933 236.198 625.463 237.418C629.213 246.218 625.063 254.898 615.573 256.338C603.193 258.208 595.203 265.488 589.133 275.588C585.023 282.438 581.583 289.708 577.213 296.378C563.523 317.278 543.583 329.148 519.663 334.688C511.153 336.658 502.413 337.678 493.553 338.468C505.243 333.398 516.553 327.958 525.623 318.888C534.673 309.848 541.063 299.138 545.453 287.838C537.753 293.518 530.223 300.108 521.763 305.108C501.623 317.008 479.293 319.068 456.503 317.318C435.123 315.678 417.963 304.848 402.043 291.448C399.323 289.158 395.903 287.528 392.563 286.208C381.503 281.818 365.393 270.788 359.343 262.548C400.763 288.428 441.063 289.178 481.393 262.928C480.283 263.108 479.153 263.198 478.073 263.478C457.803 268.798 437.243 272.018 416.293 269.908C391.223 267.378 371.273 256.338 359.233 233.248C358.923 232.658 358.573 232.078 358.353 231.458C358.233 231.198 358.423 230.838 358.403 230.958ZM477.613 357.318C420.493 375.278 362.463 379.698 303.383 368.528C360.803 355.078 418.963 352.518 477.613 357.318ZM465.463 337.628C390.933 338.368 316.863 342.608 244.813 364.428C253.953 372.268 300.503 386.048 337.333 389.878C369.553 393.228 401.783 391.628 434.373 391.308C432.823 391.908 431.323 392.708 429.723 393.068C413.353 396.818 396.973 400.488 380.603 404.228C379.363 404.508 377.853 404.798 377.053 405.638C368.663 414.418 360.383 423.308 352.093 432.178C351.893 432.388 351.903 432.778 351.663 433.598C372.903 430.348 391.083 419.448 410.553 412.218C400.573 437.358 344.343 461.498 308.473 455.148C322.843 439.098 336.703 423.618 351.413 407.188C279.643 410.318 212.923 396.838 152.583 357.538C255.313 326.618 359.803 323.468 465.463 337.628ZM228.763 572.478C203.093 593.848 176.523 613.528 143.503 621.278C166.853 596.518 197.493 583.898 228.763 572.478ZM581.163 392.228C557.043 427.548 529.403 459.908 498.923 489.878C460.243 527.908 417.203 560.128 370.543 587.778C310.573 623.318 247.053 651.148 181.993 675.638C151.453 687.138 120.583 697.738 89.8528 708.728C88.3428 709.268 86.7328 709.538 84.9928 709.488C182.983 648.878 285.393 596.198 385.383 539.218C311.783 568.598 240.143 602.358 167.763 635.238C173.673 628.468 246.903 579.798 281.413 560.428C320.883 538.268 360.733 516.798 398.833 495.888C346.933 512.258 295.633 535.428 243.163 555.938C250.153 551.108 257.053 546.128 264.153 541.478C310.493 511.118 360.483 488.168 412.053 468.358C448.723 454.268 485.683 440.838 520.213 421.708C547.563 406.548 573.483 389.508 595.853 367.448C596.253 367.048 596.843 366.848 597.343 366.558C597.543 366.748 597.743 366.928 597.943 367.118C592.363 375.498 586.843 383.918 581.163 392.228ZM709.463 206.618C693.583 236.148 675.103 264.018 654.943 290.788C624.483 331.258 589.093 366.578 547.313 395.488C514.893 417.928 479.783 434.818 442.933 448.378C442.363 448.588 441.713 448.578 440.413 448.768C462.173 430.788 485.923 415.778 499.573 389.298C462.453 396.568 433.753 417.818 403.973 437.628C406.603 434.458 409.233 431.298 411.873 428.138C414.543 424.948 417.213 421.748 419.893 418.568C442.123 392.278 469.703 373.168 500.483 358.288C529.283 344.368 557.703 329.788 584.123 311.558C618.853 287.598 650.233 259.888 677.883 228.048C694.243 209.208 710.003 189.838 726.043 170.718C726.323 170.378 726.723 170.148 727.073 169.858C727.303 169.998 727.533 170.128 727.763 170.268C721.693 182.398 715.883 194.678 709.463 206.618Z" fill="#F2261D"/>
<path d="M429.663 306.328C458.733 320.478 489.123 313.778 506.093 288.818C483.413 306.958 457.553 310.958 429.663 306.328Z" fill="#F2261D"/>
<path d="M723.173 115.778L703.173 88.7783L732.173 109.778L741.173 58.7783L749.173 108.778L777.173 90.7783L757.173 117.778L805.173 126.778L757.173 133.778L777.173 160.778L748.173 141.778V155.778C748.173 155.778 741.223 143.728 729.173 132.778C718.173 122.778 710.173 117.778 710.173 117.778L723.173 115.778Z" fill="#F2261D"/>
<path d="M962.128 445.39V229.39H1094.13V270.19H1002.93V316.99H1076.13V357.79H1002.93V445.39H962.128ZM1124.21 445.39V224.89H1165.01V445.39H1124.21ZM1230.68 517.39L1261.88 431.59L1262.48 456.79L1191.98 283.39H1234.28L1281.68 406.09H1272.08L1319.18 283.39H1359.98L1268.48 517.39H1230.68ZM1468.97 449.89C1451.57 449.89 1436.27 446.39 1423.07 439.39C1409.87 432.29 1399.57 422.34 1392.17 409.54C1384.77 396.74 1381.07 381.69 1381.07 364.39V229.69L1422.47 229.39V364.09C1422.47 371.19 1423.67 377.64 1426.07 383.44C1428.47 389.24 1431.77 394.24 1435.97 398.44C1440.27 402.64 1445.22 405.89 1450.82 408.19C1456.52 410.39 1462.57 411.49 1468.97 411.49C1475.57 411.49 1481.67 410.34 1487.27 408.04C1492.97 405.74 1497.92 402.49 1502.12 398.29C1506.32 394.09 1509.57 389.09 1511.87 383.29C1514.27 377.49 1515.47 371.09 1515.47 364.09V229.39H1556.87V364.39C1556.87 381.69 1553.17 396.74 1545.77 409.54C1538.37 422.34 1528.07 432.29 1514.87 439.39C1501.67 446.39 1486.37 449.89 1468.97 449.89ZM1678.25 449.89C1662.15 449.89 1648.7 446.14 1637.9 438.64C1627.1 431.14 1618.95 420.94 1613.45 408.04C1608.05 395.14 1605.35 380.59 1605.35 364.39C1605.35 348.19 1608.05 333.64 1613.45 320.74C1618.85 307.84 1626.8 297.64 1637.3 290.14C1647.8 282.64 1660.75 278.89 1676.15 278.89C1691.65 278.89 1705.15 282.59 1716.65 289.99C1728.15 297.39 1737.05 307.54 1743.35 320.44C1749.75 333.24 1752.95 347.89 1752.95 364.39C1752.95 380.59 1749.8 395.14 1743.5 408.04C1737.3 420.94 1728.6 431.14 1717.4 438.64C1706.2 446.14 1693.15 449.89 1678.25 449.89ZM1598.45 517.39V283.39H1634.45V394.39H1639.55V517.39H1598.45ZM1671.65 413.59C1680.45 413.59 1687.65 411.39 1693.25 406.99C1698.85 402.59 1703 396.69 1705.7 389.29C1708.4 381.79 1709.75 373.49 1709.75 364.39C1709.75 355.39 1708.35 347.19 1705.55 339.79C1702.75 332.29 1698.4 326.34 1692.5 321.94C1686.7 317.44 1679.25 315.19 1670.15 315.19C1661.65 315.19 1654.75 317.24 1649.45 321.34C1644.25 325.44 1640.45 331.19 1638.05 338.59C1635.65 345.99 1634.45 354.59 1634.45 364.39C1634.45 374.19 1635.65 382.79 1638.05 390.19C1640.45 397.59 1644.35 403.34 1649.75 407.44C1655.25 411.54 1662.55 413.59 1671.65 413.59ZM1846.01 445.39V229.39H1987.01V267.49H1886.81V313.69H1969.01V351.79H1886.81V407.29H1987.01V445.39H1846.01ZM2133.37 445.39V368.89C2133.37 365.19 2133.17 360.49 2132.77 354.79C2132.37 348.99 2131.12 343.19 2129.02 337.39C2126.92 331.59 2123.47 326.74 2118.67 322.84C2113.97 318.94 2107.27 316.99 2098.57 316.99C2095.07 316.99 2091.32 317.54 2087.32 318.64C2083.32 319.74 2079.57 321.89 2076.07 325.09C2072.57 328.19 2069.67 332.79 2067.37 338.89C2065.17 344.99 2064.07 353.09 2064.07 363.19L2040.67 352.09C2040.67 339.29 2043.27 327.29 2048.47 316.09C2053.67 304.89 2061.47 295.84 2071.87 288.94C2082.37 282.04 2095.57 278.59 2111.47 278.59C2124.17 278.59 2134.52 280.74 2142.52 285.04C2150.52 289.34 2156.72 294.79 2161.12 301.39C2165.62 307.99 2168.82 314.89 2170.72 322.09C2172.62 329.19 2173.77 335.69 2174.17 341.59C2174.57 347.49 2174.77 351.79 2174.77 354.49V445.39H2133.37ZM2022.67 445.39V283.39H2058.97V337.09H2064.07V445.39H2022.67ZM2282.99 521.89C2273.79 521.89 2265.04 520.39 2256.74 517.39C2248.44 514.49 2240.99 510.39 2234.39 505.09C2227.89 499.89 2222.59 493.79 2218.49 486.79L2256.29 468.49C2258.89 473.29 2262.59 476.94 2267.39 479.44C2272.29 481.94 2277.59 483.19 2283.29 483.19C2289.39 483.19 2295.14 482.14 2300.54 480.04C2305.94 478.04 2310.24 474.99 2313.44 470.89C2316.74 466.89 2318.29 461.89 2318.09 455.89V408.79H2323.19V283.39H2358.89V456.49C2358.89 460.49 2358.69 464.24 2358.29 467.74C2357.99 471.34 2357.39 474.89 2356.49 478.39C2353.89 488.29 2349.04 496.44 2341.94 502.84C2334.94 509.24 2326.34 513.99 2316.14 517.09C2305.94 520.29 2294.89 521.89 2282.99 521.89ZM2279.39 449.89C2264.49 449.89 2251.44 446.14 2240.24 438.64C2229.04 431.14 2220.29 420.94 2213.99 408.04C2207.79 395.14 2204.69 380.59 2204.69 364.39C2204.69 347.89 2207.84 333.24 2214.14 320.44C2220.54 307.54 2229.49 297.39 2240.99 289.99C2252.49 282.59 2265.99 278.89 2281.49 278.89C2296.89 278.89 2309.84 282.64 2320.34 290.14C2330.84 297.64 2338.79 307.84 2344.19 320.74C2349.59 333.64 2352.29 348.19 2352.29 364.39C2352.29 380.59 2349.54 395.14 2344.04 408.04C2338.64 420.94 2330.54 431.14 2319.74 438.64C2308.94 446.14 2295.49 449.89 2279.39 449.89ZM2285.99 413.59C2295.09 413.59 2302.34 411.54 2307.74 407.44C2313.24 403.34 2317.19 397.59 2319.59 390.19C2321.99 382.79 2323.19 374.19 2323.19 364.39C2323.19 354.59 2321.99 345.99 2319.59 338.59C2317.19 331.19 2313.34 325.44 2308.04 321.34C2302.84 317.24 2295.99 315.19 2287.49 315.19C2278.39 315.19 2270.89 317.44 2264.99 321.94C2259.19 326.34 2254.89 332.29 2252.09 339.79C2249.29 347.19 2247.89 355.39 2247.89 364.39C2247.89 373.49 2249.24 381.79 2251.94 389.29C2254.64 396.69 2258.79 402.59 2264.39 406.99C2269.99 411.39 2277.19 413.59 2285.99 413.59ZM2403.9 260.89V224.89H2444.7V260.89H2403.9ZM2403.9 445.39V283.39H2444.7V445.39H2403.9ZM2600.07 445.39V368.89C2600.07 365.19 2599.87 360.49 2599.47 354.79C2599.07 348.99 2597.82 343.19 2595.72 337.39C2593.62 331.59 2590.17 326.74 2585.37 322.84C2580.67 318.94 2573.97 316.99 2565.27 316.99C2561.77 316.99 2558.02 317.54 2554.02 318.64C2550.02 319.74 2546.27 321.89 2542.77 325.09C2539.27 328.19 2536.37 332.79 2534.07 338.89C2531.87 344.99 2530.77 353.09 2530.77 363.19L2507.37 352.09C2507.37 339.29 2509.97 327.29 2515.17 316.09C2520.37 304.89 2528.17 295.84 2538.57 288.94C2549.07 282.04 2562.27 278.59 2578.17 278.59C2590.87 278.59 2601.22 280.74 2609.22 285.04C2617.22 289.34 2623.42 294.79 2627.82 301.39C2632.32 307.99 2635.52 314.89 2637.42 322.09C2639.32 329.19 2640.47 335.69 2640.87 341.59C2641.27 347.49 2641.47 351.79 2641.47 354.49V445.39H2600.07ZM2489.37 445.39V283.39H2525.67V337.09H2530.77V445.39H2489.37ZM2752.76 449.89C2736.16 449.89 2721.51 446.34 2708.81 439.24C2696.21 432.04 2686.31 422.19 2679.11 409.69C2672.01 397.09 2668.46 382.69 2668.46 366.49C2668.46 348.79 2671.96 333.39 2678.96 320.29C2685.96 307.19 2695.61 297.04 2707.91 289.84C2720.21 282.54 2734.36 278.89 2750.36 278.89C2767.36 278.89 2781.81 282.89 2793.71 290.89C2805.61 298.89 2814.41 310.14 2820.11 324.64C2825.81 339.14 2827.81 356.19 2826.11 375.79H2785.76V360.79C2785.76 344.29 2783.11 332.44 2777.81 325.24C2772.61 317.94 2764.06 314.29 2752.16 314.29C2738.26 314.29 2728.01 318.54 2721.41 327.04C2714.91 335.44 2711.66 347.89 2711.66 364.39C2711.66 379.49 2714.91 391.19 2721.41 399.49C2728.01 407.69 2737.66 411.79 2750.36 411.79C2758.36 411.79 2765.21 410.04 2770.91 406.54C2776.61 403.04 2780.96 397.99 2783.96 391.39L2824.76 403.09C2818.66 417.89 2809.01 429.39 2795.81 437.59C2782.71 445.79 2768.36 449.89 2752.76 449.89ZM2699.06 375.79V345.49H2806.46V375.79H2699.06Z" fill="#F2261D"/>
<path d="M949.528 668.39V581.99H975.748C976.668 581.99 978.228 582.01 980.428 582.05C982.668 582.09 984.808 582.25 986.848 582.53C993.408 583.45 998.888 585.89 1003.29 589.85C1007.69 593.81 1010.99 598.85 1013.19 604.97C1015.39 611.09 1016.49 617.83 1016.49 625.19C1016.49 632.55 1015.39 639.29 1013.19 645.41C1010.99 651.53 1007.69 656.57 1003.29 660.53C998.888 664.49 993.408 666.93 986.848 667.85C984.848 668.09 982.708 668.25 980.428 668.33C978.148 668.37 976.588 668.39 975.748 668.39H949.528ZM958.648 659.93H975.748C977.388 659.93 979.148 659.89 981.028 659.81C982.948 659.69 984.588 659.49 985.948 659.21C990.988 658.33 995.048 656.29 998.128 653.09C1001.25 649.89 1003.53 645.89 1004.97 641.09C1006.41 636.25 1007.13 630.95 1007.13 625.19C1007.13 619.39 1006.41 614.07 1004.97 609.23C1003.53 604.39 1001.25 600.39 998.128 597.23C995.008 594.07 990.948 592.05 985.948 591.17C984.588 590.89 982.928 590.71 980.968 590.63C979.048 590.51 977.308 590.45 975.748 590.45H958.648V659.93ZM1110.55 668.39V581.99H1119.37V668.39H1110.55ZM1251.18 670.19C1245.1 670.19 1239.62 669.13 1234.74 667.01C1229.86 664.89 1225.7 661.87 1222.26 657.95C1218.86 654.03 1216.26 649.31 1214.46 643.79C1212.66 638.23 1211.76 632.03 1211.76 625.19C1211.76 616.15 1213.32 608.27 1216.44 601.55C1219.6 594.79 1224.12 589.55 1230 585.83C1235.88 582.11 1242.94 580.25 1251.18 580.25C1260.38 580.25 1267.86 582.41 1273.62 586.73C1279.42 591.01 1283.46 596.77 1285.74 604.01L1276.86 606.17C1274.98 600.89 1271.88 596.67 1267.56 593.51C1263.28 590.35 1257.94 588.77 1251.54 588.77C1244.78 588.73 1239.16 590.25 1234.68 593.33C1230.2 596.37 1226.82 600.65 1224.54 606.17C1222.3 611.65 1221.16 617.99 1221.12 625.19C1221.08 632.39 1222.18 638.73 1224.42 644.21C1226.7 649.65 1230.1 653.93 1234.62 657.05C1239.14 660.13 1244.78 661.69 1251.54 661.73C1257.74 661.73 1262.86 660.53 1266.9 658.13C1270.94 655.73 1274 652.29 1276.08 647.81C1278.2 643.33 1279.4 638.03 1279.68 631.91H1259.76V624.35H1288.92C1289.04 625.27 1289.1 626.25 1289.1 627.29C1289.14 628.29 1289.16 629.01 1289.16 629.45C1289.16 637.25 1287.76 644.23 1284.96 650.39C1282.16 656.51 1277.94 661.35 1272.3 664.91C1266.7 668.43 1259.66 670.19 1251.18 670.19ZM1381.57 668.39V581.99H1390.39V668.39H1381.57ZM1510.56 668.39V590.45H1480.38V581.99H1549.56V590.45H1519.38V668.39H1510.56ZM1630.04 668.39L1659.8 581.99H1671.5L1701.26 668.39H1692.08L1663.82 586.91H1667.3L1639.22 668.39H1630.04ZM1643.3 647.45V639.17H1687.94V647.45H1643.3ZM1792.49 668.39V581.99H1801.31V659.93H1842.35V668.39H1792.49ZM1932.98 668.39V581.99H1941.8V668.39H1932.98ZM2036.59 668.39V666.53L2083.81 590.45H2037.79V581.99H2098.27V584.03L2051.29 659.99H2097.85V668.39H2036.59ZM2191.9 668.39V581.99H2245.9V590.45H2200.72V620.33H2238.7V628.79H2200.72V659.93H2245.9V668.39H2191.9ZM2463.34 668.39V632.21L2434.36 581.99H2444.56L2467.78 622.13L2490.88 581.99H2501.08L2472.22 632.21V668.39H2463.34ZM2618.81 670.19C2610.21 670.19 2602.95 668.29 2597.03 664.49C2591.11 660.65 2586.63 655.35 2583.59 648.59C2580.55 641.83 2579.03 634.03 2579.03 625.19C2579.03 616.35 2580.55 608.55 2583.59 601.79C2586.63 595.03 2591.11 589.75 2597.03 585.95C2602.95 582.11 2610.21 580.19 2618.81 580.19C2627.45 580.19 2634.71 582.11 2640.59 585.95C2646.51 589.75 2650.99 595.03 2654.03 601.79C2657.11 608.55 2658.65 616.35 2658.65 625.19C2658.65 634.03 2657.11 641.83 2654.03 648.59C2650.99 655.35 2646.51 660.65 2640.59 664.49C2634.71 668.29 2627.45 670.19 2618.81 670.19ZM2618.81 661.73C2625.57 661.73 2631.21 660.19 2635.73 657.11C2640.25 654.03 2643.63 649.75 2645.87 644.27C2648.15 638.75 2649.29 632.39 2649.29 625.19C2649.29 617.99 2648.15 611.65 2645.87 606.17C2643.63 600.69 2640.25 596.41 2635.73 593.33C2631.21 590.25 2625.57 588.69 2618.81 588.65C2612.05 588.65 2606.43 590.19 2601.95 593.27C2597.47 596.35 2594.09 600.65 2591.81 606.17C2589.57 611.65 2588.43 617.99 2588.39 625.19C2588.35 632.39 2589.45 638.73 2591.69 644.21C2593.97 649.65 2597.37 653.93 2601.89 657.05C2606.41 660.13 2612.05 661.69 2618.81 661.73ZM2783.59 670.19C2776.99 670.19 2771.15 668.83 2766.07 666.11C2761.03 663.39 2757.07 659.55 2754.19 654.59C2751.31 649.63 2749.87 643.83 2749.87 637.19V582.05L2758.75 581.99V636.05C2758.75 640.53 2759.51 644.41 2761.03 647.69C2762.55 650.93 2764.53 653.61 2766.97 655.73C2769.45 657.81 2772.15 659.35 2775.07 660.35C2777.99 661.35 2780.83 661.85 2783.59 661.85C2786.39 661.85 2789.25 661.35 2792.17 660.35C2795.09 659.35 2797.77 657.81 2800.21 655.73C2802.65 653.61 2804.63 650.93 2806.15 647.69C2807.67 644.41 2808.43 640.53 2808.43 636.05V581.99H2817.31V637.19C2817.31 643.83 2815.87 649.63 2812.99 654.59C2810.11 659.51 2806.13 663.35 2801.05 666.11C2796.01 668.83 2790.19 670.19 2783.59 670.19Z" fill="#F2261D"/>
</svg>
